<svg id="Layer_1" data-name="Layer 1" xmlns="http://www.w3.org/2000/svg" xmlns:xlink="http://www.w3.org/1999/xlink" viewBox="0 0 84.63 86.01"><defs><style>.cls-1{fill:url(#linear-gradient);}.cls-2{fill:#fff;}</style><linearGradient id="linear-gradient" x1="1.15" y1="43" x2="83.48" y2="43" gradientUnits="userSpaceOnUse"><stop offset="0" stop-color="#985ea6"/><stop offset="0.47" stop-color="#7167ae"/><stop offset="1" stop-color="#007ec3"/></linearGradient></defs><path class="cls-1" d="M83.48,43A41.17,41.17,0,1,1,42.31,1.84,41.17,41.17,0,0,1,83.48,43Z"/><path class="cls-2" d="M61.94,37.52a1.68,1.68,0,0,0-.6-3L58,33.37a.92.92,0,0,1-.57-.5,1,1,0,0,1,0-.76l1.3-3.29a1.84,1.84,0,0,0-.1-1.75,1.74,1.74,0,0,0-1.84-.65L53.26,27a1,1,0,0,1-1.11-.84l-.38-3.52a1.69,1.69,0,0,0-1.62-1.68,2.12,2.12,0,0,0-1.22.45l-2.82,2.13a1,1,0,0,1-1.37-.24l-2-2.93a1.82,1.82,0,0,0-1.5-.91,1.77,1.77,0,0,0-1.58,1.14l-1.52,3.19a1,1,0,0,1-1.32.44l-3.11-1.69a1.75,1.75,0,0,0-2.14.18,1.94,1.94,0,0,0-.48,1.46l.14,3.53a.94.94,0,0,1-1,1l-3.57-.05a1.78,1.78,0,0,0-1.63.83,1.8,1.8,0,0,0,.1,1.84L27,34.37a.94.94,0,0,1-.4,1.34l-3.15,1.6a1.68,1.68,0,0,0-.14,3.09l3,1.89a.94.94,0,0,1,.43.62,1,1,0,0,1-.16.74l-2.05,2.89a1.81,1.81,0,0,0-.27,1.83,1.79,1.79,0,0,0,1.58,1l3.52.29A1,1,0,0,1,30,50a1,1,0,0,1,.2.73l-.47,3.5a1.91,1.91,0,0,0,.39,1.55,1.75,1.75,0,0,0,2.07.32l3.25-1.38a1,1,0,0,1,1.28.55l1.21,3.33a1.74,1.74,0,0,0,1.6,1.28A1.87,1.87,0,0,0,41,59.09l2.24-2.74a.94.94,0,0,1,1.39-.1l2.62,2.38a2,2,0,0,0,1.32.56,1.68,1.68,0,0,0,1.61-1.52l.71-3.47A1,1,0,0,1,52,53.47l3.43.88a2.15,2.15,0,0,0,.61.09,1.6,1.6,0,0,0,1.32-.62,1.86,1.86,0,0,0,.22-1.68l-1-3.4a.89.89,0,0,1,.09-.75.94.94,0,0,1,.61-.45l3.44-.8a1.67,1.67,0,0,0,.88-3l-2.45-2.55a1,1,0,0,1-.27-.71.92.92,0,0,1,.34-.68Zm-3.83,4.75,2.45,2.55a.63.63,0,0,1,.19.3.57.57,0,0,1-.33.15L57,46.08a2.45,2.45,0,0,0-1.81,3.08l1,3.4a.57.57,0,0,1,0,.35.69.69,0,0,1-.36,0L52.4,52a2.72,2.72,0,0,0-.63-.08,2.43,2.43,0,0,0-2.4,2l-.71,3.47a.55.55,0,0,1-.14.32.52.52,0,0,1-.31-.18l-2.62-2.37A2.44,2.44,0,0,0,42,55.4l-2.24,2.74c-.14.18-.25.22-.28.22a.63.63,0,0,1-.19-.3l-1.21-3.32a2.43,2.43,0,0,0-2.3-1.62,2.53,2.53,0,0,0-1,.2L31.58,54.7a.72.72,0,0,1-.3.08h-.05s-.06-.12,0-.36l.47-3.5A2.49,2.49,0,0,0,31.15,49a2.46,2.46,0,0,0-1.72-.9l-3.53-.29a.6.6,0,0,1-.34-.1s0-.14.14-.33l2-2.89a2.39,2.39,0,0,0,.41-1.9,2.45,2.45,0,0,0-1.1-1.6l-3-1.89c-.2-.13-.25-.23-.25-.25s.06-.12.28-.23l3.15-1.6a2.51,2.51,0,0,0,1.25-1.5,2.47,2.47,0,0,0-.24-1.93l-1.76-3.06a.7.7,0,0,1-.12-.34s.11-.07.35-.07h0l3.56,0a2.46,2.46,0,0,0,1.78-.75,2.43,2.43,0,0,0,.68-1.81l-.14-3.53c0-.24,0-.34.09-.36a.72.72,0,0,1,.32.1l3.11,1.69a2.55,2.55,0,0,0,1.18.3,2.43,2.43,0,0,0,2.21-1.41L41,21.22c.1-.21.2-.28.22-.28s.12,0,.26.25l2,2.93a2.45,2.45,0,0,0,2,1.1,2.51,2.51,0,0,0,1.48-.5l2.83-2.13a.75.75,0,0,1,.32-.15.61.61,0,0,1,.12.34l.38,3.52a2.45,2.45,0,0,0,2.84,2.16L57,27.9a1,1,0,0,1,.36,0,.56.56,0,0,1-.06.36L56,31.56a2.45,2.45,0,0,0,1.51,3.24l3.35,1.12a.58.58,0,0,1,.31.18s0,.13-.22.29L58.28,38.7a2.45,2.45,0,0,0-.17,3.57Z"/><path class="cls-2" d="M58.14,56.07l-3.42-.89a1.7,1.7,0,0,0-2.11,1.31l-.61,3,10,11.1.8-6.76,7-.24L58.33,50.88a1.79,1.79,0,0,0,.07.51l1,3.4C59.66,55.74,59.1,56.32,58.14,56.07Z"/><path class="cls-2" d="M29.08,53.33a1.68,1.68,0,0,0-1.55-1.93l-.51,0-12.17,11,6.77.8.23,7L35.62,57.68l-.06-.16a1.7,1.7,0,0,0-2.27-1L30,57.92c-.91.39-1.55-.1-1.42-1.08Z"/><path class="cls-2" d="M47.84,37a3.26,3.26,0,1,0,3.25-3.25A3.26,3.26,0,0,0,47.84,37Z"/><path class="cls-2" d="M49.21,40.51a3.08,3.08,0,0,0-1.88.65,4.74,4.74,0,0,1,2.23,3.9H56V43.58A3.07,3.07,0,0,0,53,40.51Zm3.1,4h-.46l-.37-2.48h0l.37-.68H50.35l.37.68h0l-.38,2.48h-.45l-.7-3.69H53Z"/><path class="cls-2" d="M30.28,37a3.26,3.26,0,1,0,3.25-3.25A3.25,3.25,0,0,0,30.28,37Z"/><path class="cls-2" d="M28.59,43.58v1.48h6.49a4.68,4.68,0,0,1,2.22-3.89,3,3,0,0,0-1.88-.66H31.65A3.07,3.07,0,0,0,28.59,43.58Zm6.65-2.74h.21l-.71,3.69h-.45l-.38-2.48h0l.37-.68H32.79l.37.68h0l-.38,2.48h-.45l-.7-3.69h3.62Z"/><path class="cls-2" d="M37.88,36a4.44,4.44,0,1,0,4.43-4.44A4.43,4.43,0,0,0,37.88,36Z"/><path class="cls-2" d="M39.74,40.88a4.16,4.16,0,0,0-4.16,4.17v2H49.05v-2a4.17,4.17,0,0,0-4.17-4.17ZM44,46.35H41.28L41.79,43l-.51,3.37h-.62l-1-5h5.22Z"/><polygon class="cls-2" points="41.28 46.35 43.35 46.35 42.84 42.98 42.82 42.98 43.32 42.05 41.3 42.05 41.81 42.98 41.79 42.98 41.28 46.35"/></svg>