<svg id="Layer_1" data-name="Layer 1" xmlns="http://www.w3.org/2000/svg" xmlns:xlink="http://www.w3.org/1999/xlink" viewBox="0 0 84.63 86.01"><defs><style>.cls-1{fill:url(#linear-gradient);}.cls-2{fill:#fff;}</style><linearGradient id="linear-gradient" x1="1.15" y1="43" x2="83.48" y2="43" gradientUnits="userSpaceOnUse"><stop offset="0" stop-color="#985ea6"/><stop offset="0.47" stop-color="#7167ae"/><stop offset="1" stop-color="#007ec3"/></linearGradient></defs><path class="cls-1" d="M83.48,43A41.17,41.17,0,1,1,42.31,1.84,41.17,41.17,0,0,1,83.48,43Z"/><path class="cls-2" d="M25.68,27.84a2.22,2.22,0,0,0,.54-1,1.58,1.58,0,0,0,0-1,1.91,1.91,0,0,0-.59-.85h0a2.1,2.1,0,0,0-.93-.49,1.66,1.66,0,0,0-1,.08,2.21,2.21,0,0,0-.89.64l-.54.6-1,1.16,3.94,3.5,1-1.15-1.07-1Zm-1.1-.49-.29.33-1.14-1,.3-.33A.94.94,0,0,1,24,26a.73.73,0,0,1,.57.22h0a.69.69,0,0,1,.28.53A.87.87,0,0,1,24.58,27.35Z"/><path class="cls-2" d="M30,23.83l0,0,1.63,1,1.46-.92-1.9-1.12a1.37,1.37,0,0,0,.2-.83,1.71,1.71,0,0,0-.29-.89h0a1.87,1.87,0,0,0-.73-.7,1.53,1.53,0,0,0-.93-.13,2.71,2.71,0,0,0-1.08.43l-2,1.28,2.83,4.45,1.31-.83-.93-1.47.37-.23Zm-.11-1.44a.72.72,0,0,1-.33.43l-.55.34-.7-1.09.55-.35a.71.71,0,0,1,.52-.12.6.6,0,0,1,.41.29h0A.59.59,0,0,1,29.85,22.39Z"/><polygon class="cls-2" points="35.46 21.77 35.21 20.97 37.16 20.36 36.82 19.28 34.88 19.88 34.63 19.07 36.7 18.43 36.34 17.26 32.79 18.36 34.34 23.4 37.9 22.3 37.53 21.13 35.46 21.77"/><polygon class="cls-2" points="42.42 19.78 42.39 19.78 41.28 16.62 39.49 16.59 39.4 21.86 40.76 21.89 40.8 18.83 40.83 18.83 41.96 21.91 42.79 21.92 44.02 18.88 44.04 18.88 43.99 21.94 45.34 21.96 45.43 16.69 43.64 16.66 42.42 19.78"/><rect class="cls-2" x="45.71" y="19.27" width="5.27" height="1.55" transform="translate(16.76 61.77) rotate(-75.39)"/><path class="cls-2" d="M55.22,20l-1.5,2.87a.92.92,0,0,1-.47.48.71.71,0,0,1-.61-.07.73.73,0,0,1-.41-.46.91.91,0,0,1,.12-.66l1.5-2.88-1.37-.71-1.58,3a1.82,1.82,0,0,0-.22,1.05,1.9,1.9,0,0,0,.4,1,3.08,3.08,0,0,0,1,.78,2.86,2.86,0,0,0,1.2.35,1.84,1.84,0,0,0,1-.24,1.79,1.79,0,0,0,.73-.78l1.58-3Z"/><polygon class="cls-2" points="59.07 26.89 59.05 26.87 60.5 23.85 59.26 22.56 55.46 26.22 56.4 27.2 58.6 25.07 58.62 25.09 57.24 28.06 57.81 28.66 60.83 27.38 60.84 27.4 58.65 29.52 59.59 30.49 63.38 26.83 62.14 25.54 59.07 26.89"/><path class="cls-2" d="M21.74,41.69A3.23,3.23,0,0,1,22,43v0a3.53,3.53,0,0,1-.18,1.18l-.22-.32H19.35l1,1.51h-.2a1.5,1.5,0,0,1-.91-.29,1.78,1.78,0,0,1-.61-.82A3.28,3.28,0,0,1,18.46,43v0a3.28,3.28,0,0,1,.22-1.27,1.75,1.75,0,0,1,.61-.81,1.52,1.52,0,0,1,.91-.29,1.54,1.54,0,0,1,.93.29A1.78,1.78,0,0,1,21.74,41.69Z"/><path class="cls-2" d="M37.85,40.72h0L37,43.77h1.64Zm0,0h0L37,43.77h1.64Zm0,0h0L37,43.77h1.64Zm0,0h0L37,43.77h1.64Zm34-7.17h-59a1.23,1.23,0,0,0-1.23,1.23V51.23a1.23,1.23,0,0,0,1.23,1.23h59a1.23,1.23,0,0,0,1.23-1.23V34.78A1.23,1.23,0,0,0,71.83,33.55ZM24.52,43A5,5,0,0,1,24,45.33a3.92,3.92,0,0,1-.73,1l1.1,1.59H22.16l-.47-.69a5.37,5.37,0,0,1-1.49.2,4.58,4.58,0,0,1-2.28-.54,3.63,3.63,0,0,1-1.5-1.53A5,5,0,0,1,15.9,43v0a5,5,0,0,1,.53-2.35,3.72,3.72,0,0,1,1.49-1.53,4.6,4.6,0,0,1,2.28-.54,4.63,4.63,0,0,1,2.3.54A3.69,3.69,0,0,1,24,40.6,5,5,0,0,1,24.52,43ZM33,44.2a3,3,0,0,1-.47,1.68A3.06,3.06,0,0,1,31.26,47a4.61,4.61,0,0,1-2,.4,4.5,4.5,0,0,1-2-.4A3,3,0,0,1,26,45.89a3,3,0,0,1-.47-1.69V38.68H28V44a1.51,1.51,0,0,0,.33,1,1.17,1.17,0,0,0,.93.36,1.21,1.21,0,0,0,.94-.36,1.56,1.56,0,0,0,.32-1V38.68H33Zm6.52,3-.45-1.71H36.55l-.45,1.71H33.46l2.79-8.57h3.16l2.79,8.57Zm9.29,0H43V38.68h2.52v6.57h3.36Zm3.46,0H49.8V38.68h2.51Zm7.88-6.57H57.94v6.57H55.42V40.68H53.17v-2h7Zm5.89,3.85v2.72H63.56V44.53l-2.92-5.85H63.3l1.5,3.48h0l1.5-3.48H69ZM37.81,40.72,37,43.77h1.64l-.8-3.05Zm0,0h0L37,43.77h1.64Zm0,0h0L37,43.77h1.64Zm0,0h0L37,43.77h1.64Zm0,0h0L37,43.77h1.64Z"/><path class="cls-2" d="M71.8,32.79h-.53c-.21-.58-.43-1.15-.67-1.72a30.66,30.66,0,0,0-49.94-9.75,30.82,30.82,0,0,0-6.57,9.75c-.24.57-.46,1.14-.66,1.72h-.6a2,2,0,0,0-2,2V51.27a2,2,0,0,0,2,2h.62c.2.56.41,1.11.64,1.66A30.74,30.74,0,0,0,30.41,71.26a30.76,30.76,0,0,0,23.87,0A30.82,30.82,0,0,0,64,64.69a30.49,30.49,0,0,0,6.57-9.75c.23-.55.45-1.1.65-1.66h.55a2,2,0,0,0,2-2V34.81A2,2,0,0,0,71.8,32.79ZM14.4,31.2a30.35,30.35,0,0,1,55.89,0c.22.53.43,1.06.62,1.59h-.43c-.17-.48-.36-1-.56-1.43a29.94,29.94,0,0,0-55.15,0c-.2.47-.39,1-.56,1.43h-.43C14,32.26,14.18,31.73,14.4,31.2Zm41.32-1.57a18.9,18.9,0,0,0-26.74,0,19.19,19.19,0,0,0-2.55,3.16H26a19.28,19.28,0,0,1,30-3.42,19.74,19.74,0,0,1,2.72,3.42h-.43A19.72,19.72,0,0,0,55.72,29.63Zm.51,3.16H28.46a18.61,18.61,0,0,1,1.7-2,17.36,17.36,0,0,1,5.48-3.69,17.23,17.23,0,0,1,18.89,3.69A18.61,18.61,0,0,1,56.23,32.79Zm0-3.65A19.64,19.64,0,0,0,25.6,32.79H16c.1-.26.21-.52.32-.78a28.29,28.29,0,0,1,15-15,28.34,28.34,0,0,1,22,0,28.29,28.29,0,0,1,15,15c.11.26.22.52.32.78H59.1A19.78,19.78,0,0,0,56.22,29.14ZM70.29,54.81a30.35,30.35,0,0,1-55.89,0c-.21-.51-.41-1-.6-1.53h.43c.17.46.35.92.54,1.37a29.91,29.91,0,0,0,48.74,9.51,29.66,29.66,0,0,0,6.41-9.51c.19-.45.37-.91.54-1.37h.43C70.7,53.8,70.51,54.3,70.29,54.81ZM29,56.37a18.91,18.91,0,0,0,29.24-3.09h.44a19.32,19.32,0,0,1-32.63,0h.44A19,19,0,0,0,29,56.37Zm-.46-3.09H56.18a17.51,17.51,0,0,1-1.65,1.91,17.25,17.25,0,0,1-5.48,3.69,17.33,17.33,0,0,1-13.41,0,17.06,17.06,0,0,1-7.12-5.6Zm0,3.59a19.63,19.63,0,0,0,30.58-3.59h9.61l-.3.72a28.26,28.26,0,0,1-52,0c-.1-.24-.2-.48-.29-.72h9.61A19.17,19.17,0,0,0,28.48,56.87Zm44.81-5.64a1.46,1.46,0,0,1-1.46,1.46h-59a1.46,1.46,0,0,1-1.46-1.46V34.78a1.46,1.46,0,0,1,1.46-1.47h59a1.46,1.46,0,0,1,1.46,1.47Z"/><polygon class="cls-2" points="35.97 30.35 35.58 29.56 35.18 30.35 34.3 30.48 34.94 31.1 34.79 31.98 35.58 31.56 36.36 31.98 36.21 31.1 36.85 30.48 35.97 30.35"/><polygon class="cls-2" points="49.51 30.35 49.12 29.56 48.72 30.35 47.84 30.48 48.48 31.1 48.33 31.98 49.12 31.56 49.9 31.98 49.75 31.1 50.39 30.48 49.51 30.35"/><polygon class="cls-2" points="43.18 28.54 42.35 26.85 41.51 28.54 39.65 28.81 41 30.12 40.68 31.98 42.35 31.1 44.01 31.98 43.7 30.12 45.04 28.81 43.18 28.54"/><polygon class="cls-2" points="35.18 55.82 35.58 56.62 35.97 55.82 36.85 55.7 36.21 55.08 36.36 54.2 35.58 54.61 34.79 54.2 34.94 55.08 34.3 55.7 35.18 55.82"/><polygon class="cls-2" points="48.72 55.82 49.12 56.62 49.51 55.82 50.39 55.7 49.75 55.08 49.9 54.2 49.12 54.61 48.33 54.2 48.48 55.08 47.84 55.7 48.72 55.82"/><polygon class="cls-2" points="41.51 57.64 42.35 59.33 43.18 57.64 45.04 57.37 43.7 56.05 44.01 54.2 42.35 55.08 40.68 54.2 41 56.05 39.65 57.37 41.51 57.64"/><path class="cls-2" d="M59.5,55.45l-1,1.16,1.08,1-.54.6a2.49,2.49,0,0,0-.54.95,1.74,1.74,0,0,0,0,1,2,2,0,0,0,.59.86h0a2,2,0,0,0,.92.49,1.79,1.79,0,0,0,1-.08,2.19,2.19,0,0,0,.88-.64l.54-.6,1-1.16Zm1.75,4.22a.86.86,0,0,1-.54.32.69.69,0,0,1-.57-.21h0a.72.72,0,0,1-.28-.54.92.92,0,0,1,.26-.57l.29-.33,1.14,1Z"/><path class="cls-2" d="M55.51,59.63l-1.31.83.93,1.46-.37.24,0,0,0,0-1.63-1-1.46.93,1.9,1.12a1.37,1.37,0,0,0-.2.83,1.91,1.91,0,0,0,.29.89h0a2,2,0,0,0,.74.7,1.51,1.51,0,0,0,.92.13,2.68,2.68,0,0,0,1.08-.44l2-1.28Zm.37,4.66a.73.73,0,0,1-.52.12.6.6,0,0,1-.42-.29h0a.6.6,0,0,1-.09-.5.67.67,0,0,1,.33-.42l.54-.35.7,1.1Z"/><polygon class="cls-2" points="49.23 64.24 49.48 65.04 47.53 65.64 47.87 66.73 49.82 66.13 50.06 66.93 47.99 67.58 48.35 68.75 51.91 67.65 50.35 62.61 46.8 63.71 47.16 64.88 49.23 64.24"/><polygon class="cls-2" points="42.27 66.23 42.3 66.23 43.41 69.39 45.2 69.42 45.29 64.14 43.94 64.12 43.89 67.18 43.87 67.18 42.74 64.1 41.91 64.09 40.68 67.12 40.66 67.12 40.7 64.07 39.35 64.05 39.27 69.32 41.06 69.35 42.27 66.23"/><rect class="cls-2" x="33.71" y="65.19" width="5.27" height="1.55" transform="matrix(0.25, -0.97, 0.97, 0.25, -36.66, 84.49)"/><path class="cls-2" d="M29.47,66,31,63.15a1,1,0,0,1,.47-.47.74.74,0,0,1,.62.07.69.69,0,0,1,.4.46,1,1,0,0,1-.11.66l-1.5,2.88,1.37.71,1.57-3A1.93,1.93,0,0,0,34,63.39a1.88,1.88,0,0,0-.41-1,2.7,2.7,0,0,0-1-.78,2.76,2.76,0,0,0-1.21-.35,1.87,1.87,0,0,0-1,.23,1.89,1.89,0,0,0-.74.79l-1.57,3Z"/><polygon class="cls-2" points="25.63 59.12 25.64 59.14 24.19 62.16 25.44 63.45 29.23 59.79 28.29 58.81 26.09 60.94 26.08 60.92 27.46 57.95 26.88 57.35 23.87 58.63 23.85 58.61 26.05 56.49 25.11 55.51 21.31 59.17 22.56 60.46 25.63 59.12"/></svg>