<svg id="Layer_1" data-name="Layer 1" xmlns="http://www.w3.org/2000/svg" xmlns:xlink="http://www.w3.org/1999/xlink" viewBox="0 0 84.63 86.01"><defs><style>.cls-1{fill:url(#linear-gradient);}.cls-2{fill:#fff;}</style><linearGradient id="linear-gradient" x1="1.15" y1="43" x2="83.48" y2="43" gradientUnits="userSpaceOnUse"><stop offset="0" stop-color="#985ea6"/><stop offset="0.47" stop-color="#7167ae"/><stop offset="1" stop-color="#007ec3"/></linearGradient></defs><path class="cls-1" d="M83.48,43A41.17,41.17,0,1,1,42.31,1.84,41.17,41.17,0,0,1,83.48,43Z"/><rect class="cls-2" x="24.18" y="57.66" width="5.05" height="5.3"/><rect class="cls-2" x="32.49" y="52.37" width="5.03" height="10.59"/><rect class="cls-2" x="40.69" y="44.81" width="5.23" height="18.15"/><rect class="cls-2" x="49.07" y="37.25" width="5.05" height="25.71"/><rect class="cls-2" x="57.37" y="29.7" width="5.05" height="33.26"/><path class="cls-2" d="M23.57,54.33l-.84-1.25C40.62,43.9,53.82,27.47,58.67,20.83l1.4.78C55.16,28.33,41.77,45,23.57,54.33Z"/><polygon class="cls-2" points="56.85 20.61 61.23 18.56 61.08 22.89 56.85 20.61"/><polygon class="cls-2" points="20.81 65.13 20.81 25.21 19.8 25.21 19.8 65.13 19.8 66.01 20.81 66.01 66.59 66.01 66.59 65.13 20.81 65.13"/><rect class="cls-2" x="24.43" y="65.16" width="1.01" height="2.28"/><rect class="cls-2" x="36.6" y="65.16" width="1.01" height="2.28"/><rect class="cls-2" x="48.77" y="65.16" width="1.01" height="2.28"/><rect class="cls-2" x="60.95" y="65.16" width="1.01" height="2.28"/><rect class="cls-2" x="18.04" y="29.25" width="2.62" height="0.88"/><rect class="cls-2" x="18.04" y="39.86" width="2.62" height="0.88"/><rect class="cls-2" x="18.04" y="50.48" width="2.62" height="0.88"/><rect class="cls-2" x="18.04" y="61.09" width="2.62" height="0.88"/></svg>