<svg id="Layer_1" data-name="Layer 1" xmlns="http://www.w3.org/2000/svg" xmlns:xlink="http://www.w3.org/1999/xlink" viewBox="0 0 420.59 424.87"><defs><style>.cls-1{fill:none;}.cls-2{opacity:0.2;}.cls-3{fill:url(#linear-gradient);}.cls-4{fill:#273339;}.cls-15,.cls-5,.cls-8{fill:#fff;}.cls-6{fill:#010101;opacity:0.1;}.cls-15,.cls-6,.cls-8{isolation:isolate;}.cls-7{fill:url(#linear-gradient-2);}.cls-8{opacity:0.4;}.cls-9{fill:url(#linear-gradient-3);}.cls-10{fill:url(#linear-gradient-4);}.cls-11{fill:#e0e1e0;}.cls-12{fill:#4a494a;}.cls-13{fill:#2b2b2b;}.cls-14{fill:#ebebeb;}.cls-15{opacity:0.2;}.cls-16{fill:url(#linear-gradient-5);}.cls-17{fill:#f5f6f6;}.cls-18{clip-path:url(#clip-path);}.cls-19{fill:#f7a7a8;}.cls-20{fill:#f4908f;}</style><linearGradient id="linear-gradient" x1="5.59" y1="320.13" x2="415.61" y2="320.13" gradientUnits="userSpaceOnUse"><stop offset="0" stop-color="#985ea6"/><stop offset="0.47" stop-color="#7167ae"/><stop offset="1" stop-color="#007ec3"/></linearGradient><linearGradient id="linear-gradient-2" x1="23.89" y1="57.01" x2="74.03" y2="57.01" xlink:href="#linear-gradient"/><linearGradient id="linear-gradient-3" x1="23.9" y1="177.7" x2="73.9" y2="177.7" xlink:href="#linear-gradient"/><linearGradient id="linear-gradient-4" x1="73.9" y1="100.52" x2="124.02" y2="100.52" xlink:href="#linear-gradient"/><linearGradient id="linear-gradient-5" x1="157.5" y1="148.36" x2="282.81" y2="148.36" xlink:href="#linear-gradient"/><clipPath id="clip-path"><path class="cls-1" d="M220.13,72.22c20.71-12,37.49-2.26,37.49,21.65s-16.78,53-37.49,64.94-37.49,2.26-37.49-21.65S199.42,84.22,220.13,72.22Z"/></clipPath></defs><g id="freepik--Floor--inject-13" class="cls-2"><path id="freepik--SUELO--inject-13" class="cls-3" d="M65.57,389.22c80.1,38.17,209.9,38.17,290,0s80-100,0-138.17-209.86-38.16-289.92,0S-14.43,351.07,65.57,389.22Z"/></g><g id="freepik--Plants--inject-13"><g id="freepik--HOJAS--inject-13"><path class="cls-4" d="M59.66,325.66c-.52-.09-1.07-.25-1.69-.41a63.39,63.39,0,0,1-6.17-2,45.6,45.6,0,0,1-11.29-6,18.35,18.35,0,0,1-4.78-5,9.1,9.1,0,0,1-1.25-6.67,6.1,6.1,0,0,1,4.66-4.63c1.07-.17,2.18,0,3.25-.19a2.58,2.58,0,0,0,2.31-2,3.3,3.3,0,0,0-.48-1.74,80.31,80.31,0,0,1-5-11.07A17.26,17.26,0,0,1,39,275.4a17.8,17.8,0,0,1,5.38-8.87c1.2-1,2.86-1.86,4.31-1.23a3.59,3.59,0,0,1,1.86,2.35,14.28,14.28,0,0,1,.34,3.06,26.32,26.32,0,0,0,1.26,6.51,5.93,5.93,0,0,0,2.14,3.31c1.86,1.16,4.42.25,6.4,1.19s2.66,3.1,2.75,5.14-.32,4.1-.09,6.13a3.73,3.73,0,0,0,.59,1.8,8,8,0,0,0,1.89,1.49,8,8,0,0,1,2.9,6.28,21.79,21.79,0,0,1-1.35,7,61.29,61.29,0,0,0-2,9.58A11.6,11.6,0,0,1,63,324.55,3.14,3.14,0,0,1,59.66,325.66Z"/><path class="cls-5" d="M63,324a.34.34,0,0,1-.29-.17C51,304.15,47.33,290.29,46.28,282.12c-1.15-8.9.47-13.07.54-13.24a.34.34,0,0,1,.44-.2.35.35,0,0,1,.2.45c0,.07-1.62,4.26-.49,13,1,8.09,4.74,21.83,16.31,41.36a.33.33,0,0,1-.12.46h0A.58.58,0,0,1,63,324Z"/><path class="cls-5" d="M56.74,312.59h0c-14.22-1.56-18.24-6.23-18.41-6.43a.34.34,0,0,1,0-.48.33.33,0,0,1,.47,0v0h0c0,.05,4.06,4.66,17.95,6.19a.35.35,0,0,1,0,.69Z"/><path class="cls-5" d="M52.73,303.73a.38.38,0,0,1-.21-.07.34.34,0,0,1-.06-.48h0c4.51-5.93,4.8-15.65,4.81-15.75a.33.33,0,0,1,.33-.33h0a.33.33,0,0,1,.33.33v0c0,.41-.3,10-4.94,16.14A.35.35,0,0,1,52.73,303.73Z"/><path class="cls-4" d="M344.17,264.88c1.38-9.3,1.4-20.65-5.43-37.23S334,202.38,341.35,200s23.54,10.22,22.94,31.39c-.59,20.44-14.4,37.32-14.4,37.32Z"/><path class="cls-6" d="M344.17,264.88c1.38-9.3,1.4-20.65-5.43-37.23S334,202.38,341.35,200s23.54,10.22,22.94,31.39c-.59,20.44-14.4,37.32-14.4,37.32Z"/><path class="cls-5" d="M347.74,267.62h-.13a.33.33,0,0,1-.19-.43v0c.07-.17,7.55-17.64,7-33.5-.62-18.25-10.73-28.29-10.83-28.39a.34.34,0,1,1,.48-.49c.1.1,10.4,10.31,11,28.86.55,16-7,33.62-7.06,33.79A.36.36,0,0,1,347.74,267.62Z"/><path class="cls-4" d="M344.57,273.13s3.86-22.48,17.56-35.4,36.54-15.38,43.7-8.48,2.57,13.61-7.52,15.94c-11.4,2.63-18.39,7.23-11.4,10.75,6.49,3.26,5.76,10.33-1,13.72-10.8,5.42-30.3.26-35,10.92Z"/><path class="cls-5" d="M347.47,277.89h-.11a.35.35,0,0,1-.21-.44,70.73,70.73,0,0,1,14.32-23.77,66.13,66.13,0,0,1,17.1-13.29,62.25,62.25,0,0,1,20.42-7,.35.35,0,0,1,.38.31.35.35,0,0,1-.3.38h0a61.68,61.68,0,0,0-20.2,7c-10,5.43-23.57,16.2-31.1,36.65A.37.37,0,0,1,347.47,277.89Z"/><path class="cls-5" d="M354.42,263.75a.34.34,0,0,1-.12-.67c11.69-4.08,28.45-1.94,28.62-1.92a.33.33,0,0,1,.29.38.34.34,0,0,1-.38.3c-.16,0-16.77-2.14-28.3,1.89Z"/></g></g><g id="freepik--social-media--inject-13"><g id="freepik--redes-sociales--inject-13"><path class="cls-7" d="M74,33.22a9.83,9.83,0,0,0-4.45-7.71l-3.63-2.1a9.83,9.83,0,0,0-8.9,0L28.33,40a9.13,9.13,0,0,0-3.24,3.49,9.44,9.44,0,0,0-1.2,3.69V80.84a9.84,9.84,0,0,0,4.46,7.71L32,90.65l.46.24.17.07.31.13.24.09.26.09.29.08.22.06.34.08h.17l.41.07h.08a9.74,9.74,0,0,0,6-1L69.57,74.08A9.88,9.88,0,0,0,74,66.36Z"/><path class="cls-8" d="M37.71,50.55a9.69,9.69,0,0,0-1.14,2.74,10,10,0,0,1,4.29-6.07L69.57,30.65C72,29.23,74,30.38,74,33.22a9.83,9.83,0,0,0-4.46-7.71l-3.63-2.1a9.83,9.83,0,0,0-8.9,0L28.33,40a9.13,9.13,0,0,0-3.24,3.49l.09-.16Z"/><path class="cls-6" d="M39.94,91.07l-.21.06h0l-.36.07h-.69a2.16,2.16,0,0,1-1.14-.43h0l-.16-.15-.09-.08-.12-.15-.1-.13L37,90.1l-.09-.16a.25.25,0,0,0-.07-.17,1.54,1.54,0,0,1-.08-.19l-.16-.16V89a1.4,1.4,0,0,1,0-.29.43.43,0,0,1,0-.16V54.94a6.35,6.35,0,0,1,.09-1.07h0a.72.72,0,0,1,.08-.4v-.16a9.9,9.9,0,0,1,1.1-2.74L25.18,43.31l-.09.16a9.44,9.44,0,0,0-1.2,3.69V80.84a9.84,9.84,0,0,0,4.46,7.71L32,90.65l.46.24.17.07.31.13.24.09.26.09.29.08.22.06.34.08h.17l.41.07h.08A10.33,10.33,0,0,0,39.94,91.07Z"/><path class="cls-5" d="M61.48,63.61A33,33,0,0,0,64.36,50a26,26,0,0,0,2.35-4.61A17.68,17.68,0,0,1,64,47.93a12.6,12.6,0,0,0,2.07-4.71,18.56,18.56,0,0,1-3,3.26,2.9,2.9,0,0,0-3.45,0c-3,1.76-5.28,6.84-4.59,10.38-3.92,2-7.4,1.5-9.72-1-1.24,3.54-.64,6.9,1.46,7.55a3.41,3.41,0,0,1-2.14.45c0,3,1.51,4.77,3.78,4.06a5.79,5.79,0,0,1-2.13,1.34c.6,2.15,2.34,3,4.41,1.83a16.35,16.35,0,0,1-7,6.63c2.08.58,4.56.19,7.23-1.35,4.66-2.69,8.24-7.56,10.53-12.83"/><path class="cls-9" d="M73.89,153.89a9.83,9.83,0,0,0-4.44-7.67l-3.62-2.1a9.79,9.79,0,0,0-8.88,0L28.33,160.69a9.11,9.11,0,0,0-3.23,3.49,9.44,9.44,0,0,0-1.2,3.69v33.68a9.87,9.87,0,0,0,4.42,7.67l3.61,2.1.46.23.17.08.31.13.23.09.26.09.29.08.22.06.34.08h.17l.41.07h.08a9.61,9.61,0,0,0,6-1l28.6-16.48A9.87,9.87,0,0,0,73.9,187Z"/><path class="cls-8" d="M37.71,171.22a9.9,9.9,0,0,0-1.1,2.74,10,10,0,0,1,4.25-6.07l28.71-16.57C72,149.9,74,151.05,74,153.89a9.85,9.85,0,0,0-4.46-7.67l-3.63-2.1a9.83,9.83,0,0,0-8.9,0l-28.7,16.57a9.13,9.13,0,0,0-3.24,3.49l.09-.16Z"/><path class="cls-6" d="M34.29,211.74l-.14.06h0l-.23.08h-.45a1.15,1.15,0,0,1-.73-.43h0l-.1-.15-.06-.08-.08-.16-.06-.12-.07-.16,0-.16a.23.23,0,0,0,0-.17,1.46,1.46,0,0,1-.05-.2l0-.17,0-.24V175.61a9.46,9.46,0,0,1,.06-1.07h0a1.07,1.07,0,0,1,0-.4V174a13.75,13.75,0,0,1,.71-2.74L24.89,164l-.06.16a13.3,13.3,0,0,0-.77,3.69v33.68a11.89,11.89,0,0,0,2.75,7.69l2.33,2.1.3.23.11.08.2.13.15.09.17.09.18.08.15.06.21.08h.11l.27.07H31A4.45,4.45,0,0,0,34.29,211.74Z"/><path class="cls-5" d="M55.21,169.22c2.94-1.7,3.29-1.88,4.45-2.48a4.91,4.91,0,0,1,2-.68,1.7,1.7,0,0,1,1.26.37,2.33,2.33,0,0,1,.83,1.21,8.22,8.22,0,0,1,.38,2.51c.05,1.51.06,2,.06,5.89s0,4.38-.06,6a13.93,13.93,0,0,1-.38,2.94,8.85,8.85,0,0,1-.83,2.16A8.17,8.17,0,0,1,61.66,189a9.75,9.75,0,0,1-2,1.68c-1.16.74-1.51,1-4.45,2.65s-3.28,1.89-4.44,2.49a5,5,0,0,1-2,.67,1.8,1.8,0,0,1-1.27-.37,2.35,2.35,0,0,1-.82-1.21,7.86,7.86,0,0,1-.38-2.5c0-1.52-.07-2-.07-5.89s0-4.39.07-6a13.19,13.19,0,0,1,.38-3,9.25,9.25,0,0,1,.82-2.16,8.31,8.31,0,0,1,1.27-1.83,9.2,9.2,0,0,1,2-1.68c1.16-.74,1.51-1,4.44-2.65m0-2.64c-3,1.72-3.36,2-4.53,2.7A12.71,12.71,0,0,0,48,171.46a12.07,12.07,0,0,0-2,2.81,14.13,14.13,0,0,0-1.27,3.33,17.92,17.92,0,0,0-.51,3.86c0,1.59-.07,2.1-.07,6.08s0,4.48.07,6a10.69,10.69,0,0,0,.51,3.27A3.74,3.74,0,0,0,46,198.67a2.81,2.81,0,0,0,2,.57,6.82,6.82,0,0,0,2.67-.86c1.17-.61,1.54-.81,4.53-2.53s3.36-2,4.54-2.71a12.85,12.85,0,0,0,4.62-5,14.27,14.27,0,0,0,1.26-3.33,17.84,17.84,0,0,0,.52-3.85c0-1.6.06-2.11.06-6.09s0-4.47-.06-6a10.59,10.59,0,0,0-.52-3.26,3.77,3.77,0,0,0-1.26-1.87,2.77,2.77,0,0,0-2-.56,6.5,6.5,0,0,0-2.67.86c-1.18.6-1.55.8-4.54,2.53m0,7.13c-3.12,1.8-5.65,6.63-5.65,10.79s2.53,6.07,5.65,4.27,5.65-6.63,5.65-10.79-2.53-6.07-5.65-4.27m0,12.42c-2,1.17-3.66-.07-3.66-2.77s1.64-5.84,3.66-7,3.67.07,3.67,2.78-1.64,5.83-3.67,7m7.19-16.87c0-1-.59-1.42-1.32-1a3.13,3.13,0,0,0-1.32,2.53c0,1,.59,1.41,1.32,1a3.2,3.2,0,0,0,1.32-2.52"/><path class="cls-10" d="M124,76.73A9.83,9.83,0,0,0,119.57,69l-3.63-2.1a9.85,9.85,0,0,0-8.91,0L78.33,83.49a10,10,0,0,0-4.43,7.18v33.68a9.85,9.85,0,0,0,4.45,7.71l3.63,2.1.46.24.17.07.31.13.23.09.27.09.28.08.23.06.34.08h.17l.41.07h.08a9.74,9.74,0,0,0,6-.95l28.64-16.53a9.87,9.87,0,0,0,4.45-7.72Z"/><path class="cls-8" d="M87.68,94.06a10.37,10.37,0,0,0-1.11,2.74,10,10,0,0,1,4.26-6.07l28.74-16.57c2.46-1.42,4.45-.27,4.45,2.57A9.82,9.82,0,0,0,119.57,69l-3.63-2.1a9.85,9.85,0,0,0-8.91,0L78.33,83.49A9.19,9.19,0,0,0,75.1,87l.08-.16Z"/><path class="cls-6" d="M89.91,134.58l-.22.06h0l-.35.08h-.77a2.13,2.13,0,0,1-1.13-.43h0l-.16-.15-.09-.08-.13-.16-.09-.12a1.4,1.4,0,0,1-.1-.16l-.09-.16a.18.18,0,0,0-.08-.17l-.07-.19-.06-.18a.53.53,0,0,0-.06-.24.48.48,0,0,1,0-.17,1.4,1.4,0,0,1,0-.29.43.43,0,0,1,0-.16,3.84,3.84,0,0,1,0-.48V98.45a6.35,6.35,0,0,1,.09-1.07h0a.79.79,0,0,1,.07-.4v-.16a10.37,10.37,0,0,1,1.11-2.74L75.24,86.84l-.08.16A9.28,9.28,0,0,0,74,90.69v33.68a9.85,9.85,0,0,0,4.45,7.71l3.63,2.1.46.24.17.07.31.13.23.09.27.09.28.08.23.06.34.08h.17l.41.07H85A10.29,10.29,0,0,0,89.91,134.58Z"/><path class="cls-5" d="M103.41,122.54l4-2.77v-16l2.81-1.93.3-5.56-3.11,2.13v-3c0-1.26.16-1.87.92-2.39l2.19-1.5V85.91l-2.79,1.92a10.15,10.15,0,0,0-4.36,9.08v4.31l-2.12,1.41v5.42l2.1-1.43Z"/></g></g><g id="freepik--Device--inject-13"><g id="freepik--MÓVIL--inject-13"><path id="freepik--sombra-movil--inject-13" class="cls-11" d="M59.13,331.22l114.73,66.22a9.6,9.6,0,0,0,8.7,0L361.48,294.15c2.4-1.39,2.4-3.63,0-5L246.75,222.89a9.58,9.58,0,0,0-8.69,0L59.13,326.22C56.73,327.58,56.73,329.82,59.13,331.22Z"/><path class="cls-12" d="M62.74,315.22l111.48,64.37a9.72,9.72,0,0,0,8.79,0l176.75-102c2.43-1.4,2.43-3.67,0-5.07L248.27,208.12a9.72,9.72,0,0,0-8.79,0L62.74,310.22C60.31,311.57,60.31,313.84,62.74,315.22Z"/><path class="cls-13" d="M174.22,379.61,62.74,315.22c-2.17-1.25-2.4-3.2-.69-4.6a9.82,9.82,0,0,0-3.71,7.14v4.13a9.74,9.74,0,0,0,4.4,7.62l111.48,64.36a9,9,0,0,0,4.4,1.05V380.66A9,9,0,0,1,174.22,379.61Z"/><path class="cls-13" d="M359.76,291.84a9.73,9.73,0,0,0,4.39-7.61V280.1a9.82,9.82,0,0,0-3.71-7.14c1.71,1.4,1.49,3.35-.68,4.6L183,379.61a9.06,9.06,0,0,1-4.39,1.05v14.28a9.06,9.06,0,0,0,4.39-1.05Z"/><path class="cls-4" d="M122.57,345a13.47,13.47,0,0,0,12.21,0c3.37-2,3.37-5.1,0-7.05a13.54,13.54,0,0,0-12.21,0C119.24,339.85,119.24,343,122.57,345Z"/><path class="cls-5" d="M191.57,366,84.86,304.3c-1.45-.84-1.45-2.21,0-3.05l139-80.28a5.83,5.83,0,0,1,5.27,0l106.71,61.65c1.46.84,1.46,2.2,0,3l-139,80.29A5.86,5.86,0,0,1,191.57,366Z"/><path class="cls-4" d="M296,244.83a3.43,3.43,0,0,0,3.09,0,1,1,0,0,0,.45-1.34A1,1,0,0,0,299,243a3.43,3.43,0,0,0-3.09,0C295.09,243.53,295.09,244.33,296,244.83Z"/><path class="cls-4" d="M300.89,258.85a6.86,6.86,0,0,0,6.18,0c1.71-1,1.71-2.59,0-3.57a6.8,6.8,0,0,0-6.18,0C299.18,256.22,299.18,257.86,300.89,258.85Z"/><path class="cls-4" d="M296.57,252.63c1.14-.65,1.08-1.75-.14-2.45l-20.34-11.75a4.67,4.67,0,0,0-4.26-.08c-1.14.66-1.08,1.76.14,2.46l20.34,11.75A4.73,4.73,0,0,0,296.57,252.63Z"/><path class="cls-14" d="M222.06,237.55c-1.46.84-1.46,2.2,0,3l81.3,46.95a5.85,5.85,0,0,0,5.28,0l18-10.37-86.58-50Z"/><path class="cls-14" d="M222.66,245.7,216.17,242a1.93,1.93,0,0,0-1.75,0l-4.09,2.36c-.49.28-.49.73,0,1l.56.33-2.07,1.1c-.24.13-.22.21.06.19l3.64-.35,4.3,2.48a2,2,0,0,0,1.76,0l4.08-2.36a.54.54,0,0,0,.31-.7A.53.53,0,0,0,222.66,245.7Z"/><path class="cls-14" d="M224.57,255.46l-.48-1c-.62-1.31-1-3.09.8-4.12a4.87,4.87,0,0,1,4.4,0c.94.54,1.15,1.35.63,2a4.86,4.86,0,0,1,3.49.36,1.33,1.33,0,0,1,0,2.53c-1.76,1-4.84.82-7.11.47Z"/><path class="cls-14" d="M135.47,290.58l81.31,46.95a5.85,5.85,0,0,0,5.28,0L285.38,301c1.45-.84,1.45-2.2,0-3l-81.31-47a5.85,5.85,0,0,0-5.28,0l-63.32,36.57C134,288.38,134,289.74,135.47,290.58Z"/><path class="cls-14" d="M136.09,295.69l-6.52-3.75a2,2,0,0,0-1.76,0l-4.09,2.36a.54.54,0,0,0-.3.7.55.55,0,0,0,.3.3l.57.33-2.07,1.09c-.25.13-.22.22,0,.19l3.64-.34,4.3,2.48a2,2,0,0,0,1.76,0l4.09-2.37a.53.53,0,0,0,.36-.66A.51.51,0,0,0,136.09,295.69Z"/><path class="cls-14" d="M138,305.44l-.47-1c-.63-1.31-1-3.09.8-4.13a4.85,4.85,0,0,1,4.39,0c1,.55,1.16,1.36.63,2a5,5,0,0,1,3.5.36,1.33,1.33,0,0,1,.84,1.69,1.34,1.34,0,0,1-.84.85c-1.76,1-4.84.82-7.12.47Z"/><path class="cls-14" d="M112.22,301a5.85,5.85,0,0,1,5.28,0l81.3,46.94c1.46.84,1.46,2.21,0,3.05l-16.59,9.58-86.56-50Z"/><path class="cls-11" d="M202.57,290.15l-46.28,12.43h0l60.51,34.94a5.85,5.85,0,0,0,5.28,0l1.31-.76,26.11-38.31-55.45,10.88Z"/><path class="cls-11" d="M225.36,263.27,204.07,251a5.85,5.85,0,0,0-5.28,0L175,264.72c1.09,2.07,3.34,4,6.75,5.67,10,4.78,26.28,4.78,36.31,0C222.25,268.39,224.68,265.87,225.36,263.27Z"/><path class="cls-15" d="M328,258.94,221.31,197.3a5.83,5.83,0,0,0-5.27,0L77,277.58c-1.45.84-1.45,2.2,0,3l22.56,13,84.19,48.63a5.83,5.83,0,0,0,5.27,0l125.12-72.29,13.84-8C329.49,261.15,329.49,259.78,328,258.94Z"/><path class="cls-5" d="M328.29,258.5l-88.24-51-18.48-10.64a6.34,6.34,0,0,0-5.78,0l-139,80.28a2.1,2.1,0,0,0,0,3.92l22.56,13,84.22,48.66a6.34,6.34,0,0,0,5.78,0l125.11-72.29,13.85-8a2.11,2.11,0,0,0,0-3.93Zm-.51,3.05-13.85,8L188.82,341.84a5.34,5.34,0,0,1-4.77,0L99.86,293.22l-22.55-13a1.13,1.13,0,0,1-.81-1.37,1.11,1.11,0,0,1,.81-.8l139-80.28a5.34,5.34,0,0,1,4.77,0l18.49,10.65,88.24,51a1.12,1.12,0,0,1,0,2.17Z"/></g></g><g id="freepik--speech-bubble--inject-13"><path class="cls-16" d="M280.14,9c1.47-.85,2.67-.16,2.67,1.54V207.09a6,6,0,0,1-2.67,4.63L203.42,256l-9,30c-.81,2.72-2.43,2.84-3.61.25l-8.24-18.19L160.17,281c-1.47.85-2.67.16-2.67-1.54V82.88a5.9,5.9,0,0,1,2.67-4.63Z"/><path class="cls-5" d="M270.34,160.72a8.13,8.13,0,0,1-3.79,6.29L224.4,191.35c-2.09,1.2-3.79.35-3.79-1.92a8.13,8.13,0,0,1,3.79-6.29l42.17-24.33C268.65,157.6,270.34,158.46,270.34,160.72Z"/><path class="cls-5" d="M262.57,185a8.14,8.14,0,0,1-3.79,6.29l-35,20.24c-2.09,1.21-3.78.35-3.78-1.92a8.1,8.1,0,0,1,3.78-6.28l35-20.24C260.91,181.91,262.57,182.77,262.57,185Z"/><path class="cls-5" d="M199.42,219.61l-.09-1.18c-1.91,4.82-4.79,8.28-8,10.13-5.67,3.28-10.74.37-10.74-8.31,0-8.18,4-17.15,10.23-20.72,4.09-2.36,6.88-.62,7.34.41v-2c0-1.11,1.13-2.66,2.51-3.46s2.52-.07,2.52,1.64v18.55c0,2.36.88,2.84,2.13,2.11,2.28-1.31,4.38-6.92,4.38-13.31,0-12.34-6.47-18.09-16.79-12.13-9.67,5.58-17.34,19.68-17.34,32,0,12.09,7.25,16.7,16.74,11.23a28.29,28.29,0,0,0,7.14-6.35c1.08-1.32,2.26-1.72,2.78-.78s.2,2.88-.87,4.2a36.7,36.7,0,0,1-9,8.08c-11.81,6.81-20.74.87-20.74-14.07,0-15.26,9.35-32.37,21.34-39.3s20.78-.77,20.78,14.67c0,9.36-3.67,17.56-8.88,20.56C202,223.16,199.93,222.79,199.42,219.61ZM186,216.8c0,4.78,2.32,7.4,5.86,5.36s6-7.28,6-12.11c0-4.65-2.37-7-6-4.88-3.49,2-5.81,7.05-5.81,11.63Z"/></g><g id="freepik--Character--inject-13"><path class="cls-5" d="M220.13,72.22c20.71-12,37.49-2.26,37.49,21.65s-16.78,53-37.49,64.94-37.49,2.26-37.49-21.65S199.42,84.22,220.13,72.22Z"/><path class="cls-17" d="M220.13,72.22c20.71-12,37.49-2.26,37.49,21.65s-16.78,53-37.49,64.94-37.49,2.26-37.49-21.65S199.42,84.22,220.13,72.22Z"/><g class="cls-18"><path class="cls-4" d="M206.46,104a6.68,6.68,0,0,0-4.28,2.66c-1.84,2.37-1.46,5.75,0,13.36l5.69-.87Z"/><path class="cls-4" d="M239.62,92.77a11,11,0,0,0,3.56-1.68c1.75-1.47,2.2.4,1.24,2.38a11.73,11.73,0,0,1-6.59,6.16c-.06-.24-1.64-4-1.64-4Z"/><path class="cls-4" d="M209.73,143.22s-10.6,6.84-12.9,9.25-3.25,9.92-4.1,19.11c0,0,12.07,5.09,31-4.28s20.64-16.78,20.64-16.78-2.45-11.13-3.36-14.22c-1.15-3.91-3.37-6.73-16.28-.87Z"/><path class="cls-19" d="M209.13,118.79c-.85.73-2-.57-3.09-1.38s-4.44-1.39-6.14,2.64,2.2,7.89,4.5,8.88a4.41,4.41,0,0,0,4.73-.86l.6,15.15s3,5.19,11.2,4.11,6.49-9.32,3.81-11.9v-3.12S229,132,231,131c1.07-.57,3.61-4.33,5.25-8.21a33.86,33.86,0,0,0,2.18-22.91c-2.93-11.68-16.32-8.47-24.3-1.31S209.13,118.79,209.13,118.79Z"/><path class="cls-4" d="M241.93,81.05c-.72-2.36-1.16-1.94-7,2.13A46.34,46.34,0,0,1,220.4,90c-4.08,1.24-9.66,2.22-12.53,6a8.76,8.76,0,0,0-1.78,5.67,1.92,1.92,0,0,0-.86-.47c-1.41-.38-3.14.65-3.87,2.31l5,1.33c-.39,2.88-1.51,11.77-.29,12.55,1.05.67,2.66,2.92,3.09,2.8,1.43-.41,2-6.75,2.78-10.59.85-4.37,1.18-6,2.75-6.18a88.91,88.91,0,0,0,15-3.73c5.4-2.11,6.95-3.9,6.95-3.9L239.52,94A16.17,16.17,0,0,0,241.93,81.05Z"/><path class="cls-20" d="M224.72,132.31s-7.57.51-10.21-.19a5.9,5.9,0,0,1-3.66-2.64,8.66,8.66,0,0,0,2.08,3.71c1.93,2,11.79,1.14,11.79,1.14Z"/><path class="cls-20" d="M222.79,123.52l3.46.37a2.44,2.44,0,0,1-2.35,1.78C222.94,125.57,222.45,124.61,222.79,123.52Z"/><polygon class="cls-20" points="227.79 110.02 228.29 119.01 233.06 116.12 227.79 110.02"/><path class="cls-4" d="M222.9,113.22a2.14,2.14,0,0,1-1.51,2,1.16,1.16,0,0,1-1.46-.72,1.14,1.14,0,0,1-.06-.45,2.13,2.13,0,0,1,1.52-2,1.14,1.14,0,0,1,1.45.7A1.24,1.24,0,0,1,222.9,113.22Z"/><path class="cls-4" d="M221.29,107.91l-3.24,2.66a2.3,2.3,0,0,1,.76-2.79,1.6,1.6,0,0,1,2.26-.12A2.62,2.62,0,0,1,221.29,107.91Z"/><path class="cls-4" d="M236.43,105.11l-3-1.48a2.12,2.12,0,0,1,2.58-1.09,1.76,1.76,0,0,1,.5,2.45A.83.83,0,0,1,236.43,105.11Z"/><path class="cls-4" d="M235.57,109.39a2.17,2.17,0,0,1-1.51,2,1.16,1.16,0,0,1-1.46-.72,1.14,1.14,0,0,1-.06-.45,2.13,2.13,0,0,1,1.52-2,1.14,1.14,0,0,1,1.45.7A1.24,1.24,0,0,1,235.57,109.39Z"/></g></g></svg>